<?xml version="1.0" encoding="iso-8859-1"?>
<!-- Generator: Adobe Illustrator 16.0.0, SVG Export Plug-In . SVG Version: 6.00 Build 0)  -->
<!DOCTYPE svg PUBLIC "-//W3C//DTD SVG 1.1//EN" "http://www.w3.org/Graphics/SVG/1.1/DTD/svg11.dtd">
<svg version="1.1" id="Capa_1" xmlns="http://www.w3.org/2000/svg" xmlns:xlink="http://www.w3.org/1999/xlink" x="0px" y="0px"
	 width="31.464px" height="31.463px" viewBox="0 0 31.464 31.463" style="enable-background:new 0 0 31.464 31.463;"
	 xml:space="preserve">
<g>
	<path d="M30.218,7.01V5.028l-0.284-0.112c-0.099-0.039-2.427-0.943-5.533-0.943c-3.328,0-6.195,1.015-8.527,3.015
		c-2.333-2.001-5.2-3.015-8.527-3.015c-3.108,0-5.436,0.904-5.533,0.943L1.527,5.028v1.836C0.586,7.039,0,7.355,0,7.869
		c0,2.677,0,18.918,0,18.918h13.933c0.482,0.431,1.187,0.703,1.975,0.703c0.787,0,1.492-0.272,1.974-0.703h13.582
		c0,0,0-17.979,0-18.918C31.464,7.45,30.99,7.178,30.218,7.01z M15.722,25.296c-1.157-0.479-5.141-1.992-9.131-1.992
		c-1.576,0-2.973,0.241-4.164,0.719V5.654h0.001c0.695-0.232,2.587-0.779,4.918-0.779c3.063,0,5.696,0.927,7.846,2.732v10.966
		l0.53-0.586V25.296z M29.316,24.028c-1.277-0.514-2.744-0.772-4.371-0.772c-3.986,0-7.781,1.528-8.922,2.03v-7.297l0.531,0.584
		V7.608c2.147-1.806,4.78-2.732,7.846-2.732c2.322,0,4.221,0.548,4.916,0.779V24.028z"/>
</g>
<g>
</g>
<g>
</g>
<g>
</g>
<g>
</g>
<g>
</g>
<g>
</g>
<g>
</g>
<g>
</g>
<g>
</g>
<g>
</g>
<g>
</g>
<g>
</g>
<g>
</g>
<g>
</g>
<g>
</g>
</svg>
